<?xml version="1.0" encoding="UTF-8" standalone="no"?><!DOCTYPE svg PUBLIC "-//W3C//DTD SVG 1.1//EN" "http://www.w3.org/Graphics/SVG/1.1/DTD/svg11.dtd"><svg width="100%" height="100%" viewBox="0 0 6667 6667" version="1.1" xmlns="http://www.w3.org/2000/svg" xmlns:xlink="http://www.w3.org/1999/xlink" xml:space="preserve" xmlns:serif="http://www.serif.com/" style="fill-rule:evenodd;clip-rule:evenodd;stroke-linejoin:round;stroke-miterlimit:2;"><rect id="Página-1" serif:id="Página 1" x="0" y="0" width="6666.667" height="6666.667" style="fill:none;"/><g id="Capa-1" serif:id="Capa 1"><path d="M3877.492,2600.683c128.062,51.696 275.296,108.012 395.467,181.2c8.688,5.296 20.108,13.483 26.254,21.604c-39.804,-11.596 -78.15,-33.838 -116.608,-47.863c-360.979,-131.662 -717.704,-177.887 -1100.342,-117.729c-127.858,20.1 -253.271,56.95 -373.579,103.338l4.15,14.25l128.988,54.267c341.729,116.196 698.042,190.392 1056.083,239.092c64.054,8.713 137.25,11.204 196.246,25.217c19.883,4.721 38.271,2.496 57.204,4.504c165.021,17.508 332.325,39.162 499.804,45.783l6.146,8.325l-297.879,0.196c-554.954,-27.162 -1105.612,-105.838 -1657.183,-175.117c-253.408,-31.833 -517.642,-65.863 -775.054,-99.463c-163.1,-21.292 -327.158,-35.838 -488.662,-67.3c-0.813,-6.475 14.412,-5.842 18.725,-5.938c20.433,-0.442 43.058,5.579 62.279,6.15c740.812,21.975 1428.042,-395.196 2181.417,-232.779c46.104,9.938 136.142,25.954 176.546,42.263" style="fill:#338fd2;fill-rule:nonzero;"/><path d="M824.305,3591.026l145.742,0c1.825,0 6.967,-6.575 6.096,-10.05l-29.038,-185.783l-128.554,186.037l5.754,9.796Zm-260.229,204.146l2.237,-16.467c123.117,-163.508 230.087,-338.25 349.312,-504.638l114.975,-1.967l81.35,514.888c-5.621,7.717 -98.188,5.067 -115.108,2.225c-10.517,-16.917 -1.479,-99.992 -19.038,-105.95l-216.217,-0.825l-12.208,4.45l-68.754,102.033l-116.55,6.25Z" style="fill-rule:nonzero;"/><path d="M5652.536,3203.484c-53.167,-16.429 -102.446,-44.454 -154.158,-64.454c-489.396,-189.267 -1006.671,-162.083 -1521.808,-202.238c-105.325,-8.213 -211.596,-22.104 -316.588,-33.217c-37.783,-4 -79.292,1.158 -114.442,-14.612c5.525,-8.804 9.588,-3.746 15.638,-3.567c268.896,8.025 537.7,2.371 807,5.496c457.404,5.312 888.738,7.362 1269.071,296.679c5.633,4.287 12.733,9.046 15.288,15.913" style="fill-rule:nonzero;"/><path d="M2637.754,3557.693l185.3,0c36.75,-67.054 -19.929,-80.275 -75.15,-79.367c-56.221,0.925 -105.929,15.483 -110.15,79.367m237.35,150l-18.6,79.304c-3.196,4.492 -22.762,7.45 -29.346,8.138c-52.958,5.517 -166.825,4.892 -220.129,-0.45c-44.067,-4.412 -94.688,-23.121 -102.254,-72.679c-5.796,-37.946 22.896,-136.196 35.129,-176.808c20.721,-68.796 43.883,-117.633 118.487,-139.771c54.888,-16.287 205.358,-20.583 249.704,17.171c37.746,32.133 30.012,77.075 20.696,120.067c-2.912,13.458 -23.4,90.904 -31.338,93.642l-284.95,2.371c-7.658,19.688 -9.292,52.304 13.812,61.713c3.146,1.283 28.396,7.304 30.175,7.304l218.612,0Z" style="fill-rule:nonzero;"/><path d="M3602.984,3479.772c-39.696,3.529 -71.133,14.471 -88.704,52.912c-8.671,18.963 -35.062,108.629 -35.525,127.271c-1.646,65.821 111.554,57.337 153.658,45.104c52.329,-15.208 69.825,-89.658 78.442,-138.179c4.1,-23.067 12.846,-56.417 -7.225,-73.646c-17.725,-15.221 -76.85,-15.579 -100.646,-13.462m102.542,283.912c-57.475,37.383 -161.167,37.417 -228.862,31.658c-57.783,-4.917 -105.508,-34.154 -101.838,-97.963c2.113,-36.771 36.95,-157.592 52.092,-193.783c47.9,-114.504 173.729,-117.642 283.233,-108.554c67.083,5.571 117.904,35.471 109.742,110.138c-4.329,39.608 -41.571,167.492 -60.375,202.058c-14.892,27.371 -28.854,40.096 -53.992,56.446" style="fill-rule:nonzero;"/><path d="M2270.449,3479.782c-29.208,1.358 -66.25,7.046 -86.65,29.921c-16.054,18.004 -49.487,129.208 -50.037,154.479c-1.429,65.588 145.113,55.088 181.267,26.833c29.688,-23.204 65.708,-149.342 54.404,-183.592c-9.317,-28.238 -74.354,-28.787 -98.983,-27.642m-37.633,-83.529c49.125,-5.363 152.487,-5.829 196.742,13.517c21.042,9.2 41.921,31.221 45.546,54.429c7.179,45.979 -28.117,165.412 -45.392,212.404c-46.479,126.442 -177.708,127.892 -293.875,118.742c-51.479,-4.054 -102.258,-27.983 -104.462,-86.229c-1.246,-32.921 42.746,-190.108 59.271,-221.787c28.238,-54.125 82.613,-84.575 142.171,-91.075" style="fill-rule:nonzero;"/><path d="M5526.33,3492.328c-18.775,-16.579 -96.479,-14.258 -121.196,-9.275c-53.125,10.712 -67.171,46.367 -81.625,93.321c-8.654,28.104 -31.754,100.5 -7.075,121.758c23.617,20.342 116.375,15.2 145.567,4.325c46.529,-17.338 64.283,-95.471 72.704,-139.754c4.404,-23.162 12.429,-52.004 -8.375,-70.375m99.896,-62.5c7.646,8.638 16.121,31.217 17.488,42.904c4.329,37.017 -36.833,182.3 -53.517,220.5c-47.363,108.454 -191.317,113.425 -293.238,101.513c-68.854,-8.05 -103.421,-47.133 -93.15,-117.304c7.558,-51.625 44.237,-180.058 76.392,-219.4c58.175,-71.171 180.367,-71.871 265.712,-62.408c21.696,2.404 65.746,17.738 80.312,34.196" style="fill-rule:nonzero;"/><path d="M5648.507,3795.17l-3.163,-13.892l102.792,-380.012l87.646,2.317l-2.129,29.092c44.396,-38.05 122.208,-43.058 179.038,-37.442c53.062,5.246 96.4,40.217 89.096,97.321l-78.404,296.633l-85.113,5.033l-9.971,-9.967l64.604,-242.196c6.229,-26.821 -2.404,-52.6 -31.096,-58.412c-30.325,-6.142 -132.338,-3.787 -147.958,29.213l-71.596,274.192l-93.746,8.121Z" style="fill-rule:nonzero;"/><path d="M1357.305,3399.36c2.092,0.588 7.2,6.2 5.642,9.583l-48.925,172.104c-3.888,31.692 -21.808,66.621 -20.188,98.629c1.717,33.758 63.579,33.892 88.642,32.371c89.242,-5.408 91.562,-36.429 113.138,-111.792c18.942,-66.179 30.321,-134.817 51.742,-200.308l95.104,-0.5l-106.1,391.579l-81.2,0c9.375,-50.325 -4.692,-23.829 -32.225,-13.496c-53.112,19.929 -191.179,38.892 -222.629,-21.071c-6.1,-11.633 -12.371,-37.092 -11.388,-50.267l78.858,-306.833l89.529,0Z" style="fill-rule:nonzero;"/><path d="M4351.267,3399.36c1.646,-0.012 5.892,-7.7 9.992,2.529c1.054,5.279 1.067,10.621 0.25,15.929c-10.017,65.325 -42.683,142.571 -57.804,208.95c-5.767,25.312 -21.058,62.254 9.188,77.658c34.721,17.688 136.688,6.588 160.7,-28.5c6.038,-8.817 15.542,-46.525 19.308,-59.846c20.629,-72.946 33.117,-148.608 56.213,-220.917c4.208,-1.554 8.712,4.196 10.358,4.196l81.2,0l-100.738,390.796l-86.625,0.85l2.021,-29.188c-58.087,30.9 -161.983,49.767 -222.7,22.929c-80.488,-35.571 -22.754,-150.917 -7.713,-211.817c12.325,-49.896 20.746,-110.092 37.921,-157.887c2.171,-6.046 3.975,-11.558 9.312,-15.683c26.371,-0.146 52.746,0.196 79.117,0" style="fill-rule:nonzero;"/><path d="M1671.691,3482.693c-3.183,-3.217 14.271,-74.929 18.612,-79.292c10.571,-10.633 56.725,1.046 73.163,-5.958c15.854,-16.8 12.904,-79.171 30.058,-86.783l86.021,-2.6c7.858,31.938 -13.538,60.525 -16.308,91.3l164.483,0c3.812,3.012 5.462,4.317 5.55,9.496c0.083,4.958 -17.479,71.225 -20.671,73.304c-25.162,4.708 -163.1,-6.55 -173.375,5.7c-6.746,55.929 -49.337,136.342 -48.787,190.283c0.179,17.675 17.271,29.55 33.242,29.55l139.496,0c-6.963,21.95 -9.983,56.079 -17.433,76.304c-2.829,7.675 -43.896,10.704 -55.262,11.367c-40.621,2.375 -116.263,3.721 -153.304,-9.446c-64.463,-22.917 -51.621,-82.746 -39.375,-137.517c11.658,-52.129 31.629,-104.008 44.067,-156.142c1.796,-3.358 -4.388,-9.567 -5.633,-9.567l-64.542,0Z" style="fill-rule:nonzero;"/><path d="M4861.365,3399.36l160.317,0c3.996,3.179 4.821,3.492 4.658,8.6c-0.1,3.262 -14.325,58.758 -16.121,63.267c-1.592,3.996 -3.167,7.4 -7.233,9.425l-166.017,2.629l-50.996,189.075c-1.958,22.325 21.183,35.337 39.996,35.337l127.004,0l-20.629,81.438c-56.75,5.312 -193.071,22.279 -233.471,-25.092c-36.217,-42.467 6.092,-138.237 18.092,-186.254c7.633,-30.554 12.75,-62.167 19.525,-92.967l-66.421,-2.375c-2.808,-4.171 12.829,-70.896 16.692,-76.546c10.067,-14.725 57.358,-1.129 74.917,-8.371l24.483,-83.833c19.25,-0.371 42.333,-4.712 60.708,-4.958c9.113,-0.125 32.704,-1.321 33.946,9.3c1.45,12.383 -25.496,62.05 -19.45,81.325" style="fill-rule:nonzero;"/><path d="M3093.719,3399.36l41.642,254.233c10.396,1.45 7.708,0.471 11.462,-5.387c52.683,-82.088 108.85,-162.117 162.367,-243.629c6.679,-6.529 85.029,-7.279 100.983,-7.192c2.542,0.012 10.904,1.321 10.287,3.958l-272.308,385.817l-89.25,3.304c-10.6,-55.733 -20.092,-112.412 -29.292,-168.625c-3.067,-18.754 -2.512,-41.696 -5.654,-61.004c-8.725,-53.583 -27.263,-106.921 -28.092,-161.475l97.854,0Z" style="fill-rule:nonzero;"/><path d="M4053.536,3270.193c0.367,7.35 0.233,14.592 -1.004,21.908c-17.754,104.954 -66.121,219.287 -88.671,323.779c-6.021,27.9 -16.092,69.7 15.825,84.458c2.596,1.2 24.612,7.354 25.963,7.354l131.171,0c-5.571,19.438 -9.108,59.858 -17.438,76.287c-3.4,6.708 -9.058,8.067 -15.683,9.346c-40.479,7.812 -171.863,5.146 -207.992,-13.121c-52.146,-26.371 -45.175,-77.588 -35.842,-126.721c19.258,-101.429 54.825,-224.392 83.258,-325.025c5.367,-19.004 10.192,-43.067 20.883,-58.267l89.529,0Z" style="fill-rule:nonzero;"/><path d="M5198.654,3399.36l-99.479,389.129c-5.287,7.596 -80.858,1.417 -96.25,6.717c-7.367,-7.367 43.683,-177.371 50.225,-201.858c3.558,-13.325 6.358,-26.688 9.938,-40.058c12.667,-47.346 26.562,-94.425 36.708,-142.433c0.767,-3.338 7.554,-11.496 9.329,-11.496l89.529,0Z" style="fill-rule:nonzero;"/><path d="M1871.781,4065.83c3.704,3.058 13.929,-0.408 18.438,-4.067c4.692,-3.804 38.904,-49.175 45.775,-58.375c9.633,-12.904 20.929,-37.354 32.1,-51.367c17.829,-22.358 40.783,-25 68.204,-15.292l-56.225,202.454l-41.896,1.837c-4.062,-26.433 16.808,-53.287 16.817,-77.021c0.004,-13.025 -14.763,-5.833 -21.083,-0.175c-31.562,28.258 -37.567,96.054 -95.929,75.392l-12.217,-89.871l-21.287,2.496l-25.108,88.596l-38.688,0.65c-5.471,-0.742 -1.408,-16.204 -0.479,-21.1c11.454,-60.45 40.975,-125.471 52.646,-186.888l55.875,3.7l23.058,129.029Z" style="fill:#338fd2;fill-rule:nonzero;"/><path d="M3961.558,4048.951l34.321,-115.567c9.463,-0.458 42.129,-4.858 44.725,5.887l-60.512,201.183l-57.771,-3.546l-54.292,-125.204l-10.55,2.704l-37.537,126.2c-10.387,-0.342 -41.804,5.05 -45.075,-6.354l57.692,-199.763c14.975,-1.95 56.946,-6.121 66.946,4.412l39.454,106.346l22.6,3.7Z" style="fill:#338fd2;fill-rule:nonzero;"/><path d="M2740.871,3979.515c-11.371,-11.392 -78.475,-4.113 -89.571,8.354c-5.092,5.717 -3.088,14.633 -5.571,20.758c-4.275,10.529 -4.783,11.771 -8.879,25.188c-4.946,16.188 -14.671,21.025 -11.417,42.329c4.317,28.254 48.646,25.754 71.054,21.358c6.367,-1.25 27.683,-18.492 30.321,-23.429c8.325,-15.588 27.079,-81.517 14.062,-94.558m49.65,-33.033c11.617,12.867 11.529,41.704 8.642,58.142c-4.567,25.975 -28.7,98.821 -47.996,115.637c-30.55,26.617 -108.579,29.854 -146.946,18.921c-14.35,-4.087 -30.175,-13.729 -32.838,-29.629c-3.983,-23.808 22.917,-128.046 38.538,-146.408c30.567,-35.938 149.046,-51.621 180.6,-16.662" style="fill:#338fd2;fill-rule:nonzero;"/><path d="M4756.233,3979.521c-17.608,-17.383 -71.242,-5.363 -94.179,-4.596l-12.633,42.887c3.296,12.758 71.408,12.833 83.908,9.679c16.4,-4.137 36.804,-34.25 22.904,-47.971m46.012,-41.8c1.142,0.638 11.883,20.071 12.542,22.992c5.508,24.317 -17.892,82.671 -45.246,91.596c6.625,29.417 -0.125,58.1 -7.725,86.729l-42.221,0.092l-1.812,-60.679c-22.983,-17.496 -52.95,-12.775 -79.338,-8.733l-26.758,69.396c-7.667,3.229 -45.008,4.771 -45.787,-4.279l62.104,-200.233l174.242,3.121Z" style="fill:#338fd2;fill-rule:nonzero;"/><path d="M3033.37,3978.577c-31.738,-11.375 -62.508,-9.917 -95.175,-3.579l-12.675,42.817c4.104,15.858 77.771,9.946 92.367,5.667c16.487,-4.833 9.254,-31.388 15.483,-44.904m48.671,-32.167c13.833,17.671 -1.121,65.717 -12.2,83.392c-3.904,6.225 -23.238,19.675 -24.017,22.588c-3.438,12.804 1.658,79.358 -8.729,88.212l-45.412,0.438l4.25,-63.533l-5.229,-4.458c-25.042,-8.146 -52.229,-9.592 -78.296,-5.113l-24.637,71.183c-8.858,3.117 -44.154,5.025 -45.988,-4.446l59.967,-198.237c3.662,-3.412 8.146,-3.317 12.729,-3.929c25.875,-3.462 116.171,-3.521 142,-0.058c7.146,0.958 21.692,9.021 25.562,13.962" style="fill:#338fd2;fill-rule:nonzero;"/><path d="M2237.041,3979.485c-14.017,-13.658 -72.629,-9.079 -88.404,3.367c-16.042,12.654 -40.604,91.387 -29.458,108.333c20.95,12.783 70.842,11.421 89.967,-1.954c17.525,-12.258 43.154,-94.879 27.896,-109.746m49.829,-33.175c22.083,26.388 -4.738,89.392 -14.479,118.708c-7.792,23.463 -5.925,35.942 -29.233,55.254c-30.692,25.429 -84.354,28.475 -122.667,23.758c-44.517,-5.479 -62.921,-19.688 -57.012,-67.263c1.525,-12.283 30.312,-104.354 35.787,-111.062c30.842,-37.792 117.067,-44.733 161.246,-32.629c4.1,1.125 24.742,11.3 26.358,13.233" style="fill:#338fd2;fill-rule:nonzero;"/><path d="M4534.485,3932.693l4.529,8.492l-2.471,28.988l-129.221,6.117c-36.688,67.158 76.525,17.1 103.271,45.867l-14.154,30.8c-37.883,3.421 -77.329,-5.217 -113.971,6.762l-4.137,39.642l110.35,0c11.442,8.929 -0.133,32.55 -8.329,41.667l-158.233,0c-12.667,0 0.221,-39.458 2.329,-47.667c10.35,-40.279 25.667,-110.675 41.138,-146.342c1.629,-3.758 7.658,-14.325 10.667,-14.325l158.233,0Z" style="fill:#338fd2;fill-rule:nonzero;"/><path d="M3743.313,3932.693c10.608,2.971 1.225,31.338 -5.142,37.542l-124.208,8.025l-1.246,32.992l102.938,5.35c3.558,5.688 -0.312,27.688 -5.546,32.863c-21.525,21.287 -149.033,-30.162 -122.95,49.896l110.35,0c11.775,0 -1.75,36.392 -8.329,41.667l-164.479,0l50.033,-200.971c0.837,-3.021 8.733,-7.363 10.346,-7.363l158.233,0Z" style="fill:#338fd2;fill-rule:nonzero;"/><path d="M3481.852,3946.363c9.338,10.942 10.217,37.45 4.558,50.129c-5.142,11.537 -34.213,13.838 -45.279,9.246c-5.146,-3.125 1.371,-11.667 -1.625,-18.629c-9.8,-22.771 -81.625,-14.65 -97.912,1.946c-4.875,4.963 -27.758,75.4 -28.375,84.346c-2.729,39.742 78.2,37.042 99.029,11.354c3.758,-4.633 4.146,-12.104 8.483,-16.571c8.625,-8.875 49.371,-2.058 49.738,4.067c-17.917,53.121 -55.363,73.033 -110.179,73.267c-13.15,0.058 -49.833,-2.763 -61.675,-5.35c-20.258,-4.421 -33.529,-24.271 -35.346,-44.1c-1.625,-17.721 21.846,-89.354 30.471,-109.042c20.858,-47.617 53.458,-57.254 103.775,-58.662c20.908,-0.588 70.108,1.333 84.338,18" style="fill:#338fd2;fill-rule:nonzero;"/><path d="M4292.97,3932.693c11.804,3.308 -1.488,30.25 -4.725,37.887c-17.592,10.325 -61.154,-4.729 -71.958,10.383c-21.283,29.767 -26.762,120.729 -45.692,157.583l-46.333,0.337l41.367,-157.683c-4.775,-15.188 -51.1,-0.796 -62.363,-8.667c-12.121,-8.467 4.012,-39.842 10.65,-39.842l179.054,0Z" style="fill:#338fd2;fill-rule:nonzero;"/><path d="M2548.227,3932.693c11.375,3.183 -0.142,29.075 -3.067,36.542l-71.942,9.233l-47.658,160.65c-4.754,3.179 -28.788,2.979 -35.708,1.929c-6.525,-0.996 -6.267,2.571 -6.246,-6.283c0.054,-26.5 47.879,-150.042 37.638,-160.425l-58.533,-1.833c-11.058,-7.525 4.483,-39.812 10.625,-39.812l174.892,0Z" style="fill:#338fd2;fill-rule:nonzero;"/><path d="M1621.675,4013.977l-0.533,34.792l-9.812,6.821l-455.963,-16.704l466.308,-24.908Z" style="fill:#338fd2;fill-rule:nonzero;"/><path d="M4957.147,4013.977l0.533,34.792l9.812,6.821l455.962,-16.704l-466.308,-24.908Z" style="fill:#338fd2;fill-rule:nonzero;"/><path d="M5225.72,3270.193c2.2,0.338 6.079,5.425 10.442,4.204c-5.596,11.75 -16.904,79.129 -27.1,79.129l-89.525,0c-1.5,-12.792 13.646,-83.333 22.9,-83.333c24.146,0 61.3,-3.392 83.283,0" style="fill-rule:nonzero;"/><path d="M824.305,3591.026l-5.754,-9.796l128.554,-186.037l29.038,185.783c0.871,3.475 -4.271,10.05 -6.096,10.05l-145.742,0Z" style="fill:#fff;fill-rule:nonzero;"/><path d="M2740.871,3979.515c13.017,13.042 -5.738,78.971 -14.062,94.558c-2.637,4.938 -23.954,22.179 -30.321,23.429c-22.408,4.396 -66.738,6.896 -71.054,-21.358c-3.254,-21.304 6.471,-26.142 11.417,-42.329c4.096,-13.417 4.604,-14.658 8.879,-25.188c2.483,-6.125 0.479,-15.042 5.571,-20.758c11.096,-12.467 78.2,-19.746 89.571,-8.354" style="fill:#fff;fill-rule:nonzero;"/><path d="M4756.233,3979.521c13.9,13.721 -6.504,43.833 -22.904,47.971c-12.5,3.154 -80.613,3.079 -83.908,-9.679l12.633,-42.887c22.938,-0.767 76.571,-12.787 94.179,4.596" style="fill:#fff;fill-rule:nonzero;"/><path d="M3033.37,3978.577c-6.229,13.517 1.004,40.071 -15.483,44.904c-14.596,4.279 -88.263,10.192 -92.367,-5.667l12.675,-42.817c32.667,-6.338 63.438,-7.796 95.175,3.579" style="fill:#fff;fill-rule:nonzero;"/><path d="M2237.041,3979.485c15.258,14.867 -10.371,97.488 -27.896,109.746c-19.125,13.375 -69.017,14.738 -89.967,1.954c-11.146,-16.946 13.417,-95.679 29.458,-108.333c15.775,-12.446 74.387,-17.025 88.404,-3.367" style="fill:#fff;fill-rule:nonzero;"/></g></svg>